<svg xmlns="http://www.w3.org/2000/svg" viewBox="0 0 32 32"><title>Artboard-28</title><g id="Auction"><path d="M28.854,15.146l-2-2a.5.5,0,0,0-.708,0l-.646.647L18.207,6.5l.647-.646a.5.5,0,0,0,0-.708l-2-2a.5.5,0,0,0-.708,0l-6,6a.5.5,0,0,0,0,.708l2,2a.5.5,0,0,0,.708,0l.646-.647L15.793,13.5,12.5,16.793l-.646-.647a.517.517,0,0,0-.708,0L3.975,23.318a3.328,3.328,0,0,0,4.707,4.707l7.172-7.171a.5.5,0,0,0,0-.708l-.647-.646L18.5,16.207,20.793,18.5l-.647.646a.5.5,0,0,0,0,.708l2,2a.5.5,0,0,0,.708,0l6-6A.5.5,0,0,0,28.854,15.146ZM12.5,10.793,11.207,9.5,16.5,4.207,17.793,5.5ZM7.975,27.318a2.329,2.329,0,0,1-3.293-3.293L11.5,17.207,14.793,20.5ZM14.5,18.793,13.207,17.5,16.5,14.207,17.793,15.5ZM14.207,10.5,17.5,7.207,24.793,14.5,21.5,17.793ZM22.5,20.793,21.207,19.5,26.5,14.207,27.793,15.5Z"/></g></svg>